<svg width="1058" height="785" viewBox="0 0 1058 785" fill="none" xmlns="http://www.w3.org/2000/svg">
<g id="undraw_Ride_a_bicycle_2yok 1" clip-path="url(#clip0)">
<path id="Vector" opacity="0.1" d="M225.802 115.432C220.322 122.082 218.212 131.432 215.852 140.222C196.852 211.062 150.032 268.042 96.7121 308.742C74.1321 325.982 46.6421 349.102 51.5821 380.012C54.2421 396.612 65.9121 408.832 74.5821 422.352C92.7721 450.662 98.6721 489.142 90.0021 523.032C80.1421 561.592 52.5821 597.572 61.1121 636.562C66.3721 660.562 84.2321 677.642 101.402 692.322C128.189 715.209 155.829 736.649 184.322 756.642C203.422 770.042 223.742 783.082 246.002 784.782C265.602 786.282 284.802 778.832 303.412 771.482C319.672 765.052 336.342 758.362 349.472 745.482C358.042 737.072 364.872 726.222 374.392 719.342C396.752 703.182 425.472 713.422 451.112 720.342C511.612 736.582 576.362 730.652 633.932 703.602C722.242 662.102 789.552 574.952 875.932 528.192C913.072 508.082 953.472 495.602 987.862 469.702C1007.24 454.956 1023.89 436.938 1037.06 416.462C1063.06 376.352 1077.12 325.212 1073.06 275.152C1069 225.092 1046.25 176.852 1010.52 148.592C972.272 118.342 923.962 112.692 880.442 94.5322C835.502 75.7722 795.522 43.5322 751.012 23.4022C714.996 7.15881 675.8 -0.814994 636.3 0.0657808C596.8 0.946555 557.998 10.6596 522.742 28.4922C474.302 52.9922 425.202 110.152 371.252 114.492C332.812 117.492 255.822 79.0122 225.802 115.432Z" fill="url(#paint0_linear)"/>
<g id="right wheel">
<path id="Vector_2" d="M721.847 698.39L715.587 600.49L715.457 600.28L709.137 602.48L680.047 687.29L633.797 654.49L707.487 601.08L707.557 600.87L707.977 600.72L712.727 597.27L635.487 553.96L616.557 574.76L619.557 594.26L708.357 595.84V597.84L617.877 596.22L614.477 574.11L640.367 545.66L679.087 500.49L679.777 502.36L687.977 493.36L718.517 498.83V497.62L720.517 497.68V499.19L765.877 507.31L723.547 591.96L717.377 596.43V596.93V597.49L815.187 563.41L803.577 654.62L720.577 601.75L717.657 600.11L766.597 679L721.847 698.39ZM717.847 604.05L723.697 695.43L763.747 678.05L717.847 604.05ZM637.277 654.49L679.067 684.12L706.407 604.38L637.277 654.49ZM719.597 598.83L721.687 600L802.037 651.2L812.837 566.33L719.597 598.83ZM712.497 591.63L715.007 595.68L715.447 595.36L718.447 500.83L688.707 495.49L680.547 504.49L712.497 591.63ZM637.107 552.58L711.947 594.58L710.647 592.45L679.067 506.18L641.867 547.06L637.107 552.58ZM720.477 501.19L717.477 593.88L721.997 590.6L762.907 508.78L720.477 501.19Z" fill="#535461"/>
<path id="Vector_3" d="M713.757 480C703.144 479.988 692.578 481.415 682.347 484.24C677.071 485.695 671.904 487.523 666.887 489.71C640.157 501.297 618.674 522.387 606.594 548.898C594.514 575.41 592.697 605.459 601.492 633.233C610.287 661.008 629.071 684.533 654.209 699.259C679.348 713.984 709.054 718.863 737.582 712.952C766.109 707.04 791.431 690.759 808.648 667.257C825.865 643.755 833.754 614.702 830.789 585.72C827.823 556.738 814.215 529.885 792.595 510.356C770.975 490.828 742.881 480.012 713.747 480H713.757ZM713.357 686.09C693.076 686.082 673.408 679.137 657.62 666.407C641.831 653.678 630.872 635.931 626.562 616.113C622.252 596.295 624.851 575.599 633.928 557.463C643.004 539.326 658.011 524.84 676.457 516.41C681.149 514.262 686.021 512.532 691.017 511.24C703.229 508.07 715.977 507.537 728.411 509.678C740.845 511.818 752.681 516.581 763.13 523.652C773.58 530.722 782.404 539.937 789.015 550.683C795.627 561.429 799.873 573.46 801.473 585.975C803.073 598.49 801.989 611.202 798.293 623.265C794.598 635.329 788.375 646.467 780.04 655.939C771.704 665.41 761.447 672.998 749.951 678.196C738.455 683.395 725.984 686.086 713.367 686.09H713.357Z" fill="#3A3A43"/>
<path id="Vector_4" d="M716.357 609.67C723.432 609.67 729.167 603.935 729.167 596.86C729.167 589.785 723.432 584.05 716.357 584.05C709.282 584.05 703.547 589.785 703.547 596.86C703.547 603.935 709.282 609.67 716.357 609.67Z" fill="#535461"/>
<path id="Vector_5" opacity="0.1" d="M715.557 608.07C722.632 608.07 728.367 602.335 728.367 595.26C728.367 588.185 722.632 582.45 715.557 582.45C708.482 582.45 702.747 588.185 702.747 595.26C702.747 602.335 708.482 608.07 715.557 608.07Z" fill="black"/>
</g>
<g id="man">
<path id="Vector_6" d="M421.06 532.194L378.353 490.05L365.007 503.574L407.714 545.718L421.06 532.194Z" fill="#3A3A43"/>
<path id="Vector_7" d="M388.54 469.881C388.54 469.881 413.33 456.801 422.91 448.381C428.677 443.335 434.878 438.808 441.44 434.851L472.54 415.921L537.54 410.921L540.54 421.921C540.54 421.921 545.54 437.921 495.54 451.921C445.54 465.921 420.54 487.921 420.54 487.921C420.54 487.921 388.54 498.881 388.54 469.881Z" fill="#DB8B8B"/>
<path id="Vector_8" opacity="0.1" d="M423.19 485.751C421.42 487.101 420.54 487.881 420.54 487.881C420.54 487.881 388.54 498.881 388.54 469.881C388.54 469.881 390.09 469.061 392.54 467.691C395.015 471.721 398.483 475.05 402.611 477.359C406.739 479.669 411.39 480.881 416.12 480.881H419.51L423.19 485.751Z" fill="black"/>
<path id="Vector_9" opacity="0.05" d="M539.6 427.441C536.82 433.331 527.23 443.011 495.54 451.881C454.93 463.251 430.81 479.881 423.19 485.751C421.42 487.101 420.54 487.881 420.54 487.881C420.54 487.881 388.54 498.881 388.54 469.881C388.54 469.881 390.09 469.061 392.54 467.691C399.97 463.621 415.7 454.691 422.88 448.341C428.646 443.294 434.847 438.766 441.41 434.811L472.51 415.881L484.09 414.991L537.51 410.881L540.51 421.881C540.51 421.881 541.21 424.031 539.6 427.441Z" fill="black"/>
<path id="Vector_10" d="M389.04 463.381L362.54 480.881L440.14 545.881C440.14 545.881 451.54 538.881 445.54 530.881C445.54 530.881 425.54 513.881 424.54 489.881L418.54 481.881H415.15C409.418 481.882 403.827 480.102 399.149 476.788C394.472 473.474 390.94 468.789 389.04 463.381V463.381Z" fill="#ABB1D1"/>
<path id="Vector_11" opacity="0.1" d="M539.6 427.441C523.6 419.711 484.54 418.881 484.54 418.881L484.12 414.991L537.54 410.881L540.54 421.881C540.54 421.881 541.21 424.031 539.6 427.441Z" fill="black"/>
<path id="Vector_12" d="M484.54 416.881C484.54 416.881 531.54 417.881 543.54 427.881L537.54 306.881H472.54L484.54 416.881Z" fill="#ABB1D1"/>
<path id="Vector_13" opacity="0.05" d="M482.54 416.381C482.54 416.381 529.54 417.381 541.54 427.381L535.54 306.381H470.54L482.54 416.381Z" fill="black"/>
<path id="Vector_14" d="M522.3 342.841C522.3 342.841 639.95 338.841 642.35 354.051C644.75 369.261 524.7 362.851 524.7 362.851C524.7 362.851 515.1 353.241 522.3 342.841Z" fill="#535461"/>
<path id="Vector_15" opacity="0.05" d="M522.3 342.841C522.3 342.841 639.95 338.841 642.35 354.051C644.75 369.261 524.7 362.851 524.7 362.851C524.7 362.851 515.1 353.241 522.3 342.841Z" fill="black"/>
<path id="Vector_16" d="M427.06 403.671H406.25V584.551H427.06V403.671Z" fill="#605F70"/>
<path id="Vector_17" opacity="0.1" d="M427.06 403.661V417.591C420.14 418.491 413.06 419.061 406.25 419.281V403.661H427.06Z" fill="black"/>
<path id="Vector_18" d="M425.5 388.671C422.58 388.445 419.676 388.054 416.8 387.501C405.52 385.341 377.08 380.811 369.43 388.501C359.83 398.101 363.03 414.911 388.64 417.311C414.25 419.711 458.27 413.311 467.08 403.701C467.08 403.661 451.15 390.641 425.5 388.671Z" fill="#535461"/>
<path id="Vector_19" d="M421.46 453.291L639.96 385.261L647.16 402.071L423.06 478.901L421.46 453.291Z" fill="#605F70"/>
<path id="Vector_20" d="M486.29 560.541L643.96 405.271L652.76 418.071L502.29 574.941L486.29 560.541Z" fill="#605F70"/>
<path id="Vector_21" opacity="0.1" d="M687.64 507.741C682.644 509.033 677.772 510.763 673.08 512.911L663.52 486.201C668.537 484.014 673.704 482.186 678.98 480.731L687.64 507.741Z" fill="black"/>
<path id="Vector_22" d="M714.39 586.151L703.19 592.551L625.05 374.221L621.55 364.451L639.96 354.041L644.57 368.421L714.39 586.151Z" fill="#605F70"/>
<path id="Vector_23" opacity="0.1" d="M644.57 368.421L625.05 374.221L621.55 364.451L639.96 354.041L644.57 368.421Z" fill="black"/>
<path id="Vector_24" d="M525.5 385.261L635.15 347.641C635.15 347.641 654.36 350.041 647.15 366.051L536.71 398.861C536.71 398.861 519.91 400.461 525.5 385.261Z" fill="#535461"/>
<path id="Vector_25" opacity="0.1" d="M401.85 593.751C401.849 599.885 401.374 606.01 400.43 612.071C390.83 611.381 380.91 610.381 371.19 609.381C373.349 597.49 373.081 585.285 370.4 573.501C379.87 571.501 389.54 569.591 398.98 567.861C400.893 576.358 401.855 585.041 401.85 593.751V593.751Z" fill="black"/>
<path id="Vector_26" opacity="0.1" d="M427.06 563.271V584.541H406.25V566.541C413.45 565.291 420.45 564.181 427.06 563.271Z" fill="black"/>
<path id="Vector_27" d="M292.6 593.381C292.6 593.381 460.68 549.381 474.28 566.171C487.88 582.961 502.29 605.381 459.91 613.381C417.53 621.381 289.43 599.771 289.43 599.771L292.6 593.381Z" fill="#605F70"/>
<path id="Vector_28" opacity="0.1" d="M375.27 519.261L353.91 538.811C350.127 533.955 345.851 529.504 341.15 525.531L361.09 504.701C366.224 509.14 370.968 514.011 375.27 519.261V519.261Z" fill="black"/>
<path id="Vector_29" d="M287 584.551L412.65 453.291L416.66 483.701L293.4 596.551L287 584.551Z" fill="#605F70"/>
<path id="Vector_30" opacity="0.1" d="M482.28 606.161C496.424 606.161 507.89 594.695 507.89 580.551C507.89 566.407 496.424 554.941 482.28 554.941C468.136 554.941 456.67 566.407 456.67 580.551C456.67 594.695 468.136 606.161 482.28 606.161Z" fill="black"/>
<path id="Vector_31" d="M483.89 606.161C498.034 606.161 509.5 594.695 509.5 580.551C509.5 566.407 498.034 554.941 483.89 554.941C469.746 554.941 458.28 566.407 458.28 580.551C458.28 594.695 469.746 606.161 483.89 606.161Z" fill="#535461"/>
<path id="Vector_32" d="M477.052 578.627L477.044 578.633C474.037 580.882 473.422 585.143 475.671 588.151L495.997 615.331C498.246 618.339 502.508 618.954 505.515 616.705L505.523 616.699C508.531 614.449 509.145 610.188 506.896 607.181L486.57 580C484.321 576.993 480.06 576.378 477.052 578.627Z" fill="#6C63FF"/>
<path id="Vector_33" d="M599.54 224.881L597.16 254.991C596.886 258.805 596.936 262.635 597.31 266.441C597.62 269.811 597.31 275.711 594.01 284.711C589.773 296.208 587.583 308.358 587.54 320.611V354.881L564.54 350.881C564.54 350.881 565.54 302.881 561.54 294.881C557.54 286.881 564.54 215.881 564.54 215.881L599.54 224.881Z" fill="#DB8B8B"/>
<path id="Vector_34" opacity="0.05" d="M598.36 239.801L597.16 254.991C596.89 258.802 596.943 262.629 597.32 266.431C597.63 269.801 597.32 275.701 594.02 284.711C589.783 296.208 587.593 308.358 587.55 320.611V354.881L564.55 350.881C564.55 350.881 565.55 302.881 561.55 294.881C558.72 289.211 561.4 251.941 563.21 230.671C563.96 221.921 564.55 215.881 564.55 215.881L599.55 224.881L598.36 239.801Z" fill="black"/>
<path id="Vector_35" d="M485.56 454.881L476.91 504.081C475.819 510.65 474.146 517.109 471.91 523.381C466.84 537.241 470.08 556.671 472.54 567.271C473.63 571.951 474.54 574.911 474.54 574.911L448.54 588.911L440.54 582.911V578.911L439.54 489.911C433.54 475.911 435.54 454.911 439.54 446.911C440.677 444.282 441.477 441.52 441.92 438.691C443.92 427.971 444.54 412.911 444.54 412.911C444.54 412.911 460.54 385.911 479.54 403.911C486.54 410.541 489.2 419.211 489.76 427.511C490.74 441.721 485.56 454.881 485.56 454.881Z" fill="#DB8B8B"/>
<path id="Vector_36" opacity="0.1" d="M489.76 427.481C475.89 435.721 451.76 438.051 441.92 438.661C443.92 427.941 444.54 412.881 444.54 412.881C444.54 412.881 460.54 385.881 479.54 403.881C486.54 410.511 489.2 419.181 489.76 427.481Z" fill="black"/>
<path id="Vector_37" d="M523.54 402.881C512.906 408.544 502.857 415.243 493.54 422.881C477.54 435.881 437.54 436.881 437.54 436.881V421.881C438.54 403.881 421.54 383.881 398.54 327.881C383.85 292.121 387.92 271.881 392.78 261.881C395.54 256.231 398.54 253.881 398.54 253.881L523.54 277.881L528.01 291.281L537.54 319.881C537.54 319.881 502.54 321.881 496.54 324.881C490.54 327.881 494.54 354.881 494.54 354.881C488.54 382.881 523.54 402.881 523.54 402.881Z" fill="#ABB1D1"/>
<path id="Vector_38" opacity="0.1" d="M599.54 224.881L598.36 239.801C580.96 244.801 568.54 228.881 568.54 228.881C566.725 229.367 564.942 229.965 563.2 230.671C563.95 221.921 564.54 215.881 564.54 215.881L599.54 224.881Z" fill="black"/>
<path id="Vector_39" opacity="0.1" d="M528.01 291.281C527.54 295.951 527.54 298.881 527.54 298.881C527.54 298.881 504.54 317.881 465.54 288.881C426.54 259.881 391.54 267.881 391.54 267.881C391.54 267.881 391.95 265.561 392.78 261.881C395.54 256.231 398.54 253.881 398.54 253.881L523.54 277.881L528.01 291.281Z" fill="black"/>
<path id="Vector_40" d="M613.02 185.831C610.41 206.181 609.54 231.831 609.54 231.831C586.54 249.831 568.54 226.831 568.54 226.831C546.82 232.661 536.61 251.671 531.8 268.261C529.224 277.235 527.792 286.498 527.54 295.831C527.54 295.831 521.46 300.831 510.26 301.831C499.67 302.721 484.49 299.961 465.54 285.831C426.54 256.831 391.54 264.831 391.54 264.831C391.54 264.831 398.54 224.831 414.54 212.831C430.54 200.831 442.54 185.831 462.54 139.831C482.54 93.8308 523.54 104.831 523.54 104.831C523.54 104.831 525.54 95.8308 562.54 104.831C571.552 107.193 579.894 111.612 586.91 117.741C606.7 134.381 616.3 160.191 613.02 185.831Z" fill="white"/>
<path id="Vector_41" d="M575.91 127.381C575.86 128.711 575.75 130.191 575.57 131.841C573.57 149.841 571.57 147.841 549.57 151.841C535.89 154.331 528.78 142.901 525.36 133.901C524.122 130.641 523.188 127.273 522.57 123.841L570.57 115.841C570.57 115.841 576.32 114.231 575.91 127.381Z" fill="#DB8B8B"/>
<path id="Vector_42" opacity="0.05" d="M531.8 268.311C529.224 277.285 527.792 286.548 527.54 295.881C527.54 295.881 521.46 300.881 510.26 301.881C509.944 301.244 509.703 300.573 509.54 299.881C507.54 290.881 492.54 274.881 492.54 274.881C482.54 265.881 480.54 249.881 480.54 249.881L464.04 201.381L458.54 196.881C458.54 196.881 481.54 178.881 501.54 193.881C521.54 208.881 515.54 240.881 515.54 240.881L519.54 251.881C523.69 255.381 527.91 261.551 531.8 268.311Z" fill="black"/>
<path id="Vector_43" d="M461.54 195.881L483.54 248.881C483.54 248.881 485.54 264.881 495.54 273.881C495.54 273.881 510.54 289.881 512.54 298.881C514.54 307.881 542.54 331.881 542.54 331.881C542.54 331.881 568.54 355.881 570.54 364.881C570.54 364.881 594.54 371.881 591.54 385.881C591.54 385.881 609.54 367.881 591.54 350.881C573.54 333.881 549.54 298.881 549.54 298.881C549.54 298.881 535.54 261.881 522.54 250.881L518.54 239.881C518.54 239.881 524.54 207.881 504.54 192.881C484.54 177.881 461.54 195.881 461.54 195.881Z" fill="#DB8B8B"/>
<path id="Vector_44" opacity="0.1" d="M474.54 574.881L448.54 588.881L440.54 582.881V578.881C449.524 578.243 458.253 575.609 466.09 571.171C468.49 569.811 470.75 568.471 472.56 567.291C473.61 571.921 474.54 574.881 474.54 574.881Z" fill="black"/>
<path id="Vector_45" opacity="0.1" d="M504.54 153.881L518.54 208.881C518.54 208.881 475.54 215.881 466.54 208.881C457.54 201.881 440.54 199.881 440.54 199.881C440.54 199.881 458.54 147.881 468.54 141.881C478.54 135.881 504.54 153.881 504.54 153.881Z" fill="black"/>
<path id="Vector_46" d="M504.54 151.881L518.54 206.881C518.54 206.881 475.54 213.881 466.54 206.881C457.54 199.881 440.54 197.881 440.54 197.881C440.54 197.881 458.54 145.881 468.54 139.881C478.54 133.881 504.54 151.881 504.54 151.881Z" fill="white"/>
<path id="Vector_47" opacity="0.1" d="M575.91 126.381C573.109 130.247 569.547 133.499 565.443 135.938C561.338 138.376 556.778 139.949 552.043 140.56C547.308 141.171 542.499 140.806 537.91 139.489C533.321 138.172 529.05 135.93 525.36 132.901C524.122 129.641 523.188 126.273 522.57 122.841L570.57 114.841C570.57 114.841 576.32 113.231 575.91 126.381Z" fill="black"/>
<path id="Vector_48" d="M582.54 104.881C582.54 114.163 578.852 123.066 572.289 129.63C565.725 136.193 556.823 139.881 547.54 139.881C538.257 139.881 529.355 136.193 522.791 129.63C516.228 123.066 512.54 114.163 512.54 104.881C512.54 104.301 512.54 103.721 512.54 103.141C512.771 93.8582 516.68 85.0475 523.406 78.6469C530.133 72.2463 539.127 68.7801 548.41 69.0108C557.693 69.2416 566.503 73.1503 572.904 79.8773C579.305 86.6042 582.771 95.5982 582.54 104.881V104.881Z" fill="#DB8B8B"/>
<path id="Vector_49" opacity="0.1" d="M582.54 104.881C582.543 108.107 582.099 111.317 581.22 114.421C578.515 115.01 575.693 114.752 573.14 113.681C569.4 112.211 566.19 109.681 562.6 107.861C552.49 102.741 540.46 103.751 529.26 105.441C523.7 106.281 517.39 107.061 513.02 103.521C512.87 103.402 512.726 103.275 512.59 103.141C512.821 93.8582 516.73 85.0475 523.456 78.6469C530.183 72.2463 539.177 68.7801 548.46 69.0108C557.743 69.2416 566.553 73.1503 572.954 79.8773C579.355 86.6042 582.821 95.5982 582.59 104.881H582.54Z" fill="black"/>
<path id="Vector_50" opacity="0.05" d="M419.04 212.381C419.04 212.381 445.04 219.381 453.04 237.381C461.04 255.381 482.68 258.671 482.68 258.671" fill="black"/>
<path id="Vector_51" d="M517.04 608.381H457.04V627.381H517.04V608.381Z" fill="#3A3A43"/>
<path id="Vector_52" d="M466.05 573.121C471.42 570.121 476.13 567.121 476.54 565.881C476.54 565.881 490.09 580.181 502.16 584.621C506.219 586.12 510.104 588.051 513.75 590.381C518.53 593.381 525.35 596.911 531.54 596.911C531.54 596.911 545.54 608.911 518.54 610.911C491.54 612.911 428.54 605.911 428.54 605.911L432.54 580.911C444.227 581.596 455.864 578.891 466.05 573.121Z" fill="#ABB1D1"/>
</g>
<g id="hat">
<path id="Vector_53" d="M488.624 84.9267C490.754 91.6067 500.984 91.8167 506.234 96.7367C508.964 99.2967 510.234 103.077 513.234 105.357C517.404 108.537 523.424 107.837 528.734 107.077C539.424 105.557 550.904 104.647 560.544 109.257C563.964 110.887 567.034 113.167 570.604 114.497C574.174 115.827 578.604 115.987 581.504 113.627C583.824 111.737 584.674 108.627 586.774 106.547C588.404 104.907 590.674 103.987 592.534 102.547C596.614 99.4667 598.374 94.4467 599.534 89.6467C601.934 79.7667 602.624 69.1167 598.534 59.7467C594.444 50.3767 584.604 42.7467 573.864 43.2367C570.574 43.3867 567.364 44.2367 564.084 44.5967C555.534 45.4667 547.084 42.5967 538.504 42.1067C536.015 41.8039 533.49 42.1483 531.174 43.1067C529.427 44.0775 527.92 45.4273 526.764 47.0567C522.836 52.2021 520.146 58.1836 518.904 64.5367C517.904 69.3267 517.854 73.6667 511.984 74.4067C505.314 75.2867 484.114 70.7967 488.624 84.9267Z" fill="#472727"/>
</g>
<g id="left wheel">
<path id="Vector_54" d="M286.725 695.778L280.455 597.838L280.325 597.628L274.005 599.828L244.925 684.678L198.675 651.888L272.345 598.478L272.415 598.268L272.835 598.118L277.585 594.668L200.345 551.358L181.425 572.158L184.425 591.658L273.245 593.278V595.278L182.765 593.658L179.345 571.518L205.245 543.058L243.995 497.858L244.685 499.728L252.885 490.728L283.345 496.188V494.978L285.345 495.038V496.548L330.705 504.668L288.415 589.278L282.245 593.748V594.248V594.808L380.045 560.728L368.435 651.938L285.435 599.068L282.515 597.428L331.455 676.308L286.725 695.778ZM282.725 601.438L288.575 692.818L328.625 675.438L282.725 601.438ZM202.145 651.868L243.935 681.498L271.275 601.758L202.145 651.868ZM284.465 596.208L286.555 597.378L366.905 648.578L377.705 563.708L284.465 596.208ZM277.365 589.008L279.875 593.058L280.315 592.738L283.315 498.208L253.575 492.888L245.415 501.888L277.365 589.008ZM201.945 549.948L276.785 591.948L275.485 589.818L243.905 503.548L206.715 544.418L201.945 549.948ZM285.345 498.558L282.345 591.278L286.865 587.998L327.775 506.178L285.345 498.558Z" fill="#535461"/>
<path id="Vector_55" d="M396.415 568.738C392.405 550.919 384.285 534.283 372.705 520.158C368.406 514.909 363.666 510.038 358.535 505.598C338.809 488.567 313.986 478.568 287.962 477.17C261.938 475.771 236.187 483.053 214.749 497.873C193.311 512.693 177.401 534.211 169.515 559.05C161.629 583.89 162.214 610.645 171.178 635.116C180.142 659.587 196.978 680.39 219.042 694.258C241.107 708.127 267.152 714.277 293.09 711.743C319.028 709.208 343.39 698.134 362.353 680.257C381.317 662.379 393.807 638.712 397.865 612.968C398.809 606.907 399.284 600.783 399.285 594.648C399.292 585.932 398.329 577.242 396.415 568.738ZM281.225 683.088C262.993 683.069 245.209 677.435 230.292 666.953C215.374 656.47 204.047 641.648 197.851 624.501C191.655 607.354 190.89 588.715 195.66 571.118C200.43 553.521 210.505 537.82 224.513 526.15C238.521 514.48 255.783 507.408 273.953 505.895C292.122 504.381 310.316 508.501 326.062 517.693C341.807 526.884 354.34 540.703 361.956 557.268C369.571 573.834 371.9 592.343 368.625 610.278C364.875 630.722 354.076 649.203 338.107 662.506C322.137 675.809 302.01 683.093 281.225 683.088V683.088Z" fill="#3A3A43"/>
<path id="Vector_56" opacity="0.1" d="M280.81 607.62C287.885 607.62 293.62 601.885 293.62 594.81C293.62 587.735 287.885 582 280.81 582C273.735 582 268 587.735 268 594.81C268 601.885 273.735 607.62 280.81 607.62Z" fill="black"/>
<path id="Vector_57" d="M281.225 607.058C288.3 607.058 294.035 601.323 294.035 594.248C294.035 587.174 288.3 581.438 281.225 581.438C274.15 581.438 268.415 587.174 268.415 594.248C268.415 601.323 274.15 607.058 281.225 607.058Z" fill="#535461"/>
</g>
</g>
<defs>
<linearGradient id="paint0_linear" x1="885.072" y1="93.0021" x2="92.072" y2="722.002" gradientUnits="userSpaceOnUse">
<stop offset="0.131064" stop-color="#91F510"/>
<stop offset="0.522936" stop-color="#10E8F5"/>
<stop offset="0.905441" stop-color="#101D8B"/>
</linearGradient>
<clipPath id="clip0">
<rect width="1057.7" height="784.98" fill="white"/>
</clipPath>
</defs>
</svg>
